<?xml version="1.0" encoding="UTF-8"?>
<svg version="1.1" xmlns="http://www.w3.org/2000/svg" width="1080" height="1080">
<path d="M0 0 C356.4 0 712.8 0 1080 0 C1080 356.4 1080 712.8 1080 1080 C723.6 1080 367.2 1080 0 1080 C0 723.6 0 367.2 0 0 Z " fill="#373737" transform="translate(0,0)"/>
<path d="M0 0 C6.26971221 4.23498713 12.54984053 8.74408521 18.10888672 13.88085938 C20.93531878 16.59270884 20.93531878 16.59270884 24.58984375 17.52734375 C27.33638938 15.99783032 29.50638196 14.08612522 31.859375 12 C50.03009813 -3.63817859 68.34552644 -13.47678009 92.79345703 -11.9296875 C100.04817837 -10.96221979 104.08942864 -6.77568823 108.4140625 -1.12109375 C111.78584745 4.03338133 113.96285192 9.50707212 115.546875 15.4375 C116.06894531 17.24541016 116.06894531 17.24541016 116.6015625 19.08984375 C117.77245365 23.85735904 117.92945638 28.48144027 117.921875 33.375 C117.92243896 34.30997314 117.92300293 35.24494629 117.92358398 36.20825195 C117.73961189 48.4117343 116.42380507 61.8067098 112.546875 73.4375 C113.3821875 73.53933594 114.2175 73.64117187 115.078125 73.74609375 C118.98635079 74.52509821 122.43074949 75.88064121 126.046875 77.5 C126.74466064 77.81163086 127.44244629 78.12326172 128.16137695 78.44433594 C143.64842234 85.49745959 160.13770931 94.297087 167.546875 110.4375 C167.918125 111.23671875 168.289375 112.0359375 168.671875 112.859375 C170.66623138 118.73560361 170.21061251 125.26191595 168.421875 131.125 C167.803125 132.218125 167.184375 133.31125 166.546875 134.4375 C166.16789062 135.12070312 165.78890625 135.80390625 165.3984375 136.5078125 C159.39566278 146.46617288 150.60213501 153.11429193 140.796875 159 C140.08813232 159.42982178 139.37938965 159.85964355 138.64916992 160.30249023 C134.21572664 162.85507879 130.65572924 164.05634203 125.546875 164.4375 C125.546875 165.0975 125.546875 165.7575 125.546875 166.4375 C123.94431392 166.94262244 122.33975708 167.44141627 120.734375 167.9375 C119.84105469 168.2159375 118.94773437 168.494375 118.02734375 168.78125 C115.546875 169.4375 115.546875 169.4375 112.546875 169.4375 C112.77407227 170.48369507 112.77407227 170.48369507 113.00585938 171.55102539 C117.10738428 190.83292499 121.66499672 212.29514081 114.546875 231.4375 C113.98419922 233.00564453 113.98419922 233.00564453 113.41015625 234.60546875 C109.36772606 245.07498037 104.34895084 250.64297506 94.2578125 255.55078125 C82.39664736 259.43044189 69.31377408 255.67557733 58.52978516 250.46240234 C49.17476733 245.71272679 40.70941159 240.02698325 32.546875 233.4375 C31.79019531 232.83421875 31.03351563 232.2309375 30.25390625 231.609375 C28.63456311 230.2776996 27.0807468 228.86678964 25.546875 227.4375 C25.546875 226.7775 25.546875 226.1175 25.546875 225.4375 C21.72885981 227.57613688 18.62537791 230.0343863 15.359375 232.9375 C4.62546817 242.13725529 -8.06272009 249.85602398 -21.453125 254.4375 C-22.10667969 254.67984375 -22.76023437 254.9221875 -23.43359375 255.171875 C-31.69407445 257.77859385 -42.06646819 258.04096891 -49.953125 254.375 C-61.25790889 247.64462286 -65.55894391 237.83700346 -68.83789062 225.45751953 C-69.88737197 220.30589882 -69.89488783 215.24068429 -69.828125 210 C-69.82159912 208.87706543 -69.81507324 207.75413086 -69.80834961 206.59716797 C-69.62612842 195.0673879 -68.33219198 183.62162757 -65.453125 172.4375 C-66.40058594 172.30794922 -66.40058594 172.30794922 -67.3671875 172.17578125 C-91.79886005 168.33853009 -113.73638331 155.45039944 -128.390625 135.5625 C-131.36966633 131.04880102 -131.61229662 127.94507038 -131.640625 122.625 C-131.65480469 121.42230469 -131.66898438 120.21960938 -131.68359375 118.98046875 C-131.07242359 109.58502235 -125.43583957 101.66068677 -118.73828125 95.31640625 C-108.9316473 87.25317389 -98.10873689 81.34709858 -86.453125 76.4375 C-84.69548828 75.69306641 -84.69548828 75.69306641 -82.90234375 74.93359375 C-77.03672871 72.55893299 -71.78337054 70.80986738 -65.453125 70.4375 C-65.65808594 69.67566406 -65.86304688 68.91382813 -66.07421875 68.12890625 C-66.34363281 67.09636719 -66.61304688 66.06382812 -66.890625 65 C-67.15746094 63.99066406 -67.42429687 62.98132813 -67.69921875 61.94140625 C-71.85049874 42.64763347 -72.24983482 19.60663696 -62.703125 2 C-58.8818217 -3.85227306 -53.40464286 -9.71573238 -46.65625 -12.1171875 C-29.90702148 -15.50266986 -13.86733707 -8.9979191 0 0 Z " fill="#00EEFA" transform="translate(301.453125,411.5625)"/>
<path d="M0 0 C1.86323318 0.25288812 3.71708432 0.57690153 5.5625 0.9375 C6.57441406 1.13214844 7.58632813 1.32679688 8.62890625 1.52734375 C9.41136719 1.68332031 10.19382812 1.83929687 11 2 C10.58634898 7.27405053 9.71026864 10.17729898 6 14 C5.34 14.33 4.68 14.66 4 15 C5.36408181 18.50996104 5.36408181 18.50996104 7.04296875 21.875 C8.81435775 25.8082066 8.61961082 29.78917547 8 34 C5.62414717 39.75309817 1.82874397 44.21432529 -3.859375 46.8671875 C-10.39298959 49.37094491 -17.06406568 49.68911577 -24 50 C-24 51.65 -24 53.3 -24 55 C-21.64054702 56.17972649 -20.12336069 56.15447011 -17.4921875 56.2109375 C-16.13480469 56.25347656 -16.13480469 56.25347656 -14.75 56.296875 C-12.8569521 56.34831652 -10.96369931 56.39276909 -9.0703125 56.4296875 C-1.76777329 56.6772312 4.17646788 57.54475468 9.875 62.5 C13.78559008 67.10069421 14.38644204 69.57511383 14.25 75.43359375 C13.76920692 80.3692352 11.91526964 83.80737592 8.9375 87.6875 C1.0015829 93.9349241 -7.30930143 94.61257863 -17.125 94.4375 C-18.25292969 94.44458984 -19.38085938 94.45167969 -20.54296875 94.45898438 C-27.84430142 94.40347717 -33.98129413 93.92824109 -40.05859375 89.5 C-44.10329942 85.10009355 -45.43277408 82.11613721 -45.34375 76.0625 C-44.72806197 72.36837184 -42.66097508 70.48743323 -40 68 C-36.6875 66.125 -36.6875 66.125 -34 65 C-34.639375 64.38125 -35.27875 63.7625 -35.9375 63.125 C-38.57755824 60.40493999 -38.94363945 59.49785154 -39.375 55.6875 C-39 52 -39 52 -36.75 49.125 C-34.30914718 47.23888646 -33.00649796 46.33405533 -30 46 C-30 45.34 -30 44.68 -30 44 C-30.5775 43.773125 -31.155 43.54625 -31.75 43.3125 C-35.56083774 41.08951132 -37.61929664 38.14211008 -39 34 C-39.66926589 27.01095197 -40.0937919 20.4306862 -35.640625 14.65625 C-30.34326248 9.3084364 -25.5781371 7.7546319 -18.13549805 7.56835938 C-6.68363877 7.54094892 -6.68363877 7.54094892 -3 10 C-2.86722656 9.36191406 -2.73445312 8.72382812 -2.59765625 8.06640625 C-2.42105469 7.24011719 -2.24445312 6.41382813 -2.0625 5.5625 C-1.88847656 4.73878906 -1.71445312 3.91507813 -1.53515625 3.06640625 C-1 1 -1 1 0 0 Z " fill="#FAFAFA" transform="translate(737,578)"/>
<path d="M0 0 C44.33205374 0 44.33205374 0 51.375 6.03515625 C51.91125 6.70417969 52.4475 7.37320312 53 8.0625 C53.556875 8.73410156 54.11375 9.40570313 54.6875 10.09765625 C57.97260012 14.85909601 57.41183211 20.45969252 57 26 C55.33386493 31.97848468 52.16219443 35.69175497 47 39 C44.77734375 39.6640625 44.77734375 39.6640625 43 40 C43.43570313 40.391875 43.87140625 40.78375 44.3203125 41.1875 C53.54906467 50.45620348 56.38149603 64.77131223 60 77 C60.33 77.99 60.66 78.98 61 80 C55.39 80 49.78 80 44 80 C43.38511719 78.09734375 42.77023437 76.1946875 42.13671875 74.234375 C41.53155306 72.38409828 40.92633247 70.53383904 40.31958008 68.68408203 C39.69540196 66.77417896 39.07909401 64.86170965 38.46289062 62.94921875 C38.06650391 61.74394531 37.67011719 60.53867187 37.26171875 59.296875 C36.90037842 58.18666992 36.53903809 57.07646484 36.16674805 55.93261719 C35.05713536 53.14360952 34.03289309 51.1943561 32 49 C26.90098049 47.30032683 21.35900683 47.41223129 16 47 C16 57.89 16 68.78 16 80 C10.72 80 5.44 80 0 80 C0 53.6 0 27.2 0 0 Z " fill="#44EFFA" transform="translate(509,439)"/>
<path d="M0 0 C1.00146484 1.72729492 1.00146484 1.72729492 1.7109375 3.98046875 C1.98349365 4.80869141 2.2560498 5.63691406 2.53686523 6.49023438 C2.81344971 7.38033203 3.09003418 8.27042969 3.375 9.1875 C3.97367363 11.01570063 4.57657146 12.84252316 5.18359375 14.66796875 C5.48378418 15.57208496 5.78397461 16.47620117 6.09326172 17.40771484 C7.75250299 22.15133999 9.83377146 26.68850614 11.93359375 31.25 C13 34 13 34 13 38 C12.34 38 11.68 38 11 38 C9.30893715 43.01523937 7.66912915 48.03970316 6.09765625 53.09375 C5.4194946 55.22923774 4.74110591 57.36465339 4.0625 59.5 C3.56073242 61.14355469 3.56073242 61.14355469 3.04882812 62.8203125 C2.54706055 64.37878906 2.54706055 64.37878906 2.03515625 65.96875 C1.7400415 66.91169922 1.44492676 67.85464844 1.14086914 68.82617188 C0 71 0 71 -1.84863281 71.90014648 C-4.41246685 72.01914423 -6.05760371 71.53878943 -8.45703125 70.62890625 C-9.31498291 70.30623779 -10.17293457 69.98356934 -11.05688477 69.65112305 C-11.96623779 69.29187744 -12.87559082 68.93263184 -13.8125 68.5625 C-14.75085693 68.19487549 -15.68921387 67.82725098 -16.65600586 67.44848633 C-32.14536388 61.2530076 -47.19885418 53.98410181 -56 39 C-56.82041229 33.91344377 -56.53225942 31.21887828 -53.5625 27 C-46.46291811 18.47378818 -38.1261615 12.02309402 -27.77734375 8.0703125 C-24.80110979 6.92335314 -21.87238394 5.68622769 -18.9375 4.4375 C-15.31487337 2.93156898 -11.69210182 1.45270164 -8 0.125 C-7.319375 -0.11992187 -6.63875 -0.36484375 -5.9375 -0.6171875 C-3.54876129 -1.08915603 -2.26850941 -0.88269391 0 0 Z " fill="#363A3A" transform="translate(241,498)"/>
<path d="M0 0 C7.8707483 0 7.8707483 0 11.13671875 2.5703125 C11.86850342 3.12992676 12.60028809 3.68954102 13.35424805 4.26611328 C14.50920776 5.18626221 14.50920776 5.18626221 15.6875 6.125 C17.37316076 7.419066 19.06072263 8.71065869 20.75 10 C21.61496094 10.66515625 22.47992188 11.3303125 23.37109375 12.015625 C27.55770235 15.1757991 31.87042717 18.14693021 36.1875 21.125 C43.89511443 26.47145254 51.44164474 31.9971108 58.91015625 37.671875 C60.89915275 39.17053734 62.92786133 40.61857422 65 42 C65 42.66 65 43.32 65 44 C63.46557617 45.29003906 63.46557617 45.29003906 61.29296875 46.765625 C60.48851318 47.31863281 59.68405762 47.87164063 58.85522461 48.44140625 C57.97487549 49.03824219 57.09452637 49.63507812 56.1875 50.25 C54.33719773 51.52409213 52.48827133 52.80018435 50.640625 54.078125 C49.69638672 54.73103516 48.75214844 55.38394531 47.77929688 56.05664062 C43.61409154 58.96906459 39.52039106 61.97368043 35.4375 65 C34.67002441 65.56855713 33.90254883 66.13711426 33.11181641 66.72290039 C31.54901752 67.88186473 29.98668232 69.04145459 28.42480469 70.20166016 C24.14585567 73.37511349 19.85315717 76.52990558 15.5625 79.6875 C14.00112993 80.83700579 12.43991979 81.98672885 10.87890625 83.13671875 C10.2247876 83.61842529 9.57066895 84.10013184 8.89672852 84.59643555 C7.55384117 85.59016181 6.2387517 86.62196799 4.94506836 87.67895508 C3 89 3 89 0 89 C0 59.63 0 30.26 0 0 Z " fill="#363939" transform="translate(302,487)"/>
<path d="M0 0 C2.54313351 11.17162221 3.32878301 22.11014075 3.375 33.5625 C3.38853516 34.84592285 3.40207031 36.1293457 3.41601562 37.45166016 C3.37876705 45.37629459 2.55453811 51.89092377 -1 59 C-1.66 59 -2.32 59 -3 59 C-3.226875 59.598125 -3.45375 60.19625 -3.6875 60.8125 C-5.50121296 63.83535493 -6.70094614 64.65344741 -10 66 C-21.6262361 68.04217365 -32.73926199 62.34295819 -42.25 56.1875 C-47.23400004 52.6852297 -51.96366398 48.899598 -56.625 44.98046875 C-58.70453676 43.24638136 -60.8176071 41.60143183 -63 40 C-62.55208277 35.62499445 -59.62227289 33.21994449 -56.6875 30.25 C-52.48435141 25.92276625 -48.89808454 21.52507858 -45.52807617 16.52148438 C-38.52807209 6.26927117 -38.52807209 6.26927117 -31.875 4.75 C-29.58539511 4.48177334 -27.29337938 4.23376721 -25 4 C-21.85802823 3.34184688 -18.74420563 2.57048544 -15.625 1.8125 C-10.28721908 0.52886071 -5.4994452 -0.21040094 0 0 Z " fill="#353A3B" transform="translate(400,587)"/>
<path d="M0 0 C8.37174921 8.15708898 8.42985242 18.08423192 8.72192383 29.28222656 C8.85430146 40.62296094 7.22393731 51.39298211 4.4375 62.375 C2.39096123 62.14882672 0.34458645 61.92111516 -1.70117188 61.68798828 C-3.7058817 61.46870176 -5.71268549 61.26812593 -7.72070312 61.08154297 C-31.93825188 58.68421502 -31.93825188 58.68421502 -38.55493164 51.01000977 C-40.55798305 48.2563412 -42.40210122 45.43792113 -44.16943359 42.52783203 C-46.55084872 38.84761497 -49.47042418 35.64647409 -52.375 32.375 C-53.38294058 31.2095687 -54.38960001 30.0430272 -55.39453125 28.875 C-56.10996094 28.05 -56.82539063 27.225 -57.5625 26.375 C-51.80996125 13.41074193 -31.99941194 4.42051367 -19.5625 -0.625 C-13.31357469 -2.7079751 -5.98619477 -2.73054498 0 0 Z " fill="#363939" transform="translate(394.5625,416.625)"/>
<path d="M0 0 C0.94617188 0.12117187 1.89234375 0.24234375 2.8671875 0.3671875 C4.20309753 0.536675 5.53903754 0.70592624 6.875 0.875 C7.58374268 0.96523438 8.29248535 1.05546875 9.02270508 1.1484375 C12.97630274 1.64506213 16.93021171 2.10498266 20.89453125 2.5078125 C22.09456787 2.6318042 22.09456787 2.6318042 23.31884766 2.75830078 C24.86869022 2.91644798 26.41914802 3.06870449 27.97021484 3.21435547 C37.35219157 4.18067581 37.35219157 4.18067581 40.34399414 7.48388672 C41.85519809 9.42890795 43.2770244 11.41830258 44.6875 13.4375 C49.14082738 19.61689097 53.75979174 25.26424899 59.0390625 30.765625 C60.81977635 32.79464556 61.947399 34.53261271 63 37 C53.50030516 46.25382038 41.49272078 55.96993195 28.9375 60.6875 C28.28652344 60.93886719 27.63554687 61.19023438 26.96484375 61.44921875 C25 62 25 62 21 62 C21 62.66 21 63.32 21 64 C9.05285837 64.573973 9.05285837 64.573973 4 61 C-1.56944092 55.58968597 -3.15456251 48.5112022 -3.328125 40.9609375 C-3.31918426 38.76548875 -3.29256958 36.57005421 -3.25 34.375 C-3.23759277 33.22870117 -3.22518555 32.08240234 -3.21240234 30.90136719 C-2.88994787 7.84750071 -2.88994787 7.84750071 0 0 Z " fill="#363939" transform="translate(251,589)"/>
<path d="M0 0 C1.97115395 0.93167823 3.93024209 1.88940937 5.875 2.875 C7.1434375 3.45701172 7.1434375 3.45701172 8.4375 4.05078125 C15.00478656 7.28436899 20.75485283 11.58562155 26.5625 16 C27.37799316 16.61029053 28.19348633 17.22058105 29.03369141 17.84936523 C29.78956543 18.43790283 30.54543945 19.02644043 31.32421875 19.6328125 C32.00830811 20.1602002 32.69239746 20.68758789 33.3972168 21.23095703 C34.875 22.875 34.875 22.875 34.875 26.875 C33.73046875 28.3046875 33.73046875 28.3046875 32.0625 29.75 C28.40413706 33.19228855 25.3301796 36.92273706 22.25 40.875 C21.56780396 41.74680908 21.56780396 41.74680908 20.87182617 42.63623047 C18.21765319 46.00172838 18.21765319 46.00172838 15.8868103 49.58985901 C12.93292055 54.40472803 12.93292055 54.40472803 10.06155396 55.68112183 C7.90897194 56.16010848 5.81197587 56.43865343 3.6171875 56.65234375 C2.83231964 56.75341934 2.04745178 56.85449493 1.23880005 56.95863342 C-1.25490358 57.27262216 -3.75115372 57.54285593 -6.25 57.8125 C-7.93654531 58.01866211 -9.62275151 58.22761869 -11.30859375 58.43945312 C-22.96638078 59.875 -22.96638078 59.875 -27.125 59.875 C-29.92091409 50.92807492 -30.30667796 42.32690108 -30.3125 33 C-30.32474609 31.97519531 -30.33699219 30.95039063 -30.34960938 29.89453125 C-30.36935732 19.53344255 -29.37760926 8.24671696 -22.75 -0.125 C-16.26203571 -4.84643936 -6.87552156 -2.75737063 0 0 Z " fill="#363838" transform="translate(278.125,417.125)"/>
<path d="M0 0 C-0.54102982 3.60064671 -1.35175526 5.9215261 -3.5625 8.8125 C-4.01753906 9.41707031 -4.47257813 10.02164063 -4.94140625 10.64453125 C-5.46541016 11.31548828 -5.46541016 11.31548828 -6 12 C-9.43932811 11.57008399 -11.36315116 10.77807429 -14.375 8.9375 C-20.29149776 5.83190539 -27.51539907 6.17074804 -34 7 C-36.45311864 8.12797834 -36.45311864 8.12797834 -38 10 C-38.69173454 14.10869858 -38.69173454 14.10869858 -38 18 C-33.81371792 22.64469727 -28.55358874 23.31286411 -22.6875 24.5 C-5.80021909 27.9609975 -5.80021909 27.9609975 -0.625 34.4375 C-0.16351562 34.99308594 0.29796875 35.54867187 0.7734375 36.12109375 C4.83146617 42.33737334 4.70520505 48.79994354 4 56 C1.98235828 62.83816949 -2.50048733 67.62315481 -8.5625 71.25 C-17.33260632 75.7147814 -30.19709271 75.41990561 -39.625 72.8125 C-46.28205834 70.37196054 -52.55516101 66.59189421 -57 61 C-56.6977463 57.3502866 -54.84994396 55.38175705 -52.4375 52.75 C-51.79683594 52.04359375 -51.15617187 51.3371875 -50.49609375 50.609375 C-50.00238281 50.07828125 -49.50867188 49.5471875 -49 49 C-45.34304587 50.66443426 -42.80023806 52.85128718 -39.87890625 55.5625 C-35.46119873 58.9423677 -31.39986421 59.2733684 -25.9375 59.25 C-24.72964844 59.25515625 -23.52179687 59.2603125 -22.27734375 59.265625 C-19.20796062 59.01685497 -17.53075474 58.6831623 -15 57 C-12.70448015 53.78627221 -12.51623067 50.87015465 -13 47 C-16.99616289 41.17226245 -24.3486156 40.12926168 -30.82202148 38.67333984 C-39.07766097 36.7773534 -46.35948382 34.90865808 -51.6484375 27.77734375 C-55.14266919 21.68656972 -56.09014342 15.9250063 -55 9 C-53.12044181 2.24059509 -48.89648137 -1.49486941 -43 -5 C-29.23161457 -12.37592076 -12.25220933 -8.13403459 0 0 Z " fill="#FAFAFA" transform="translate(559,574)"/>
<path d="M0 0 C7.72522965 1.10199783 14.39280562 3.89282511 21 8 C22.06605469 8.42796875 23.13210938 8.8559375 24.23046875 9.296875 C32.25886542 12.69764076 41.26296526 19.29569706 45.328125 27.06640625 C47.04356747 32.0032901 46.55780439 35.72820598 44.4375 40.5625 C36.12933741 53.18177101 21.42349568 59.20223158 8 65 C7.11441406 65.38414062 6.22882813 65.76828125 5.31640625 66.1640625 C3 67 3 67 0 67 C-0.22139648 66.31486328 -0.44279297 65.62972656 -0.67089844 64.92382812 C-1.69076169 61.78039945 -2.7203001 58.64021954 -3.75 55.5 C-4.09804688 54.42234375 -4.44609375 53.3446875 -4.8046875 52.234375 C-6.37300996 47.47132159 -7.92081915 42.93981011 -10.328125 38.53125 C-12 35 -12 35 -11.8515625 32.2890625 C-11.57054687 31.53367187 -11.28953125 30.77828125 -11 30 C-10.76023437 29.26523437 -10.52046875 28.53046875 -10.2734375 27.7734375 C-9.97695313 26.98195313 -9.68046875 26.19046875 -9.375 25.375 C-8.85292969 23.96927734 -8.85292969 23.96927734 -8.3203125 22.53515625 C-7.88460938 21.36855469 -7.44890625 20.20195313 -7 19 C-6.07075118 16.48124663 -5.14400618 13.96157895 -4.21728516 11.44189453 C-2.81390457 7.62705128 -1.40700569 3.81350741 0 0 Z " fill="#363939" transform="translate(409,500)"/>
<path d="M0 0 C5.70589164 3.48256145 9.01032543 8.12620896 11.625 14.1875 C12.54063609 19.77288016 12.60193589 25.35265657 12.25 31 C11.25 32 11.25 32 7.46459961 32.11352539 C5.77717271 32.11336622 4.08974095 32.10766917 2.40234375 32.09765625 C1.07270348 32.09553383 1.07270348 32.09553383 -0.28379822 32.09336853 C-3.12673254 32.08775215 -5.96958931 32.07519691 -8.8125 32.0625 C-10.73502491 32.05748711 -12.65755104 32.05292384 -14.58007812 32.04882812 C-19.30341549 32.03777741 -24.02669458 32.02050183 -28.75 32 C-28.13178578 33.61409018 -27.50678178 35.22558094 -26.87890625 36.8359375 C-26.53158447 37.7336084 -26.1842627 38.6312793 -25.82641602 39.55615234 C-24.31075142 42.99725068 -23.18450932 44.39235734 -19.75 46 C-13.5257403 46.80896342 -8.05351988 46.67166761 -2.75 43 C-2.09 42.01 -1.43 41.02 -0.75 40 C4.00481646 40.57634139 7.22048212 42.55068521 11.25 45 C9.29076045 50.71444868 6.70237324 54.43833354 1.3125 57.25 C-6.62198417 61.09893467 -17.38198787 61.66927861 -25.77734375 59.05859375 C-30.55413595 56.76717012 -34.30197809 54.07493499 -37.75 50 C-38.554375 49.13375 -38.554375 49.13375 -39.375 48.25 C-44.98673619 39.06715897 -45.38611174 27.27468891 -43.05859375 16.92578125 C-40.38635536 9.62464457 -36.13180714 4.14185903 -29.5 0.0625 C-20.83144979 -3.89088426 -8.69868732 -3.87486981 0 0 Z " fill="#44EEF9" transform="translate(626.75,460)"/>
<path d="M0 0 C0.81210937 -0.02449219 1.62421875 -0.04898437 2.4609375 -0.07421875 C8.33889568 -0.10247816 12.85636648 0.82933642 17.625 4.375 C22.12172853 9.65260732 23.36683086 14.45369474 23.33203125 21.25 C23.34715256 22.05993408 23.36227386 22.86986816 23.37785339 23.7043457 C23.42043899 26.26152012 23.4295395 28.81750763 23.4375 31.375 C23.46066718 33.12112467 23.4860371 34.86722158 23.51367188 36.61328125 C23.57623539 40.86729106 23.6087981 45.12057129 23.625 49.375 C25.605 49.375 27.585 49.375 29.625 49.375 C30.12 54.82 30.12 54.82 30.625 60.375 C26.1970462 62.5889769 20.43225977 61.91842937 15.625 61.375 C12.5 59.0625 12.5 59.0625 10.625 56.375 C10.026875 55.776875 9.42875 55.17875 8.8125 54.5625 C8.420625 54.170625 8.02875 53.77875 7.625 53.375 C7.398125 53.9525 7.17125 54.53 6.9375 55.125 C4.71451132 58.93583774 1.76711008 60.99429664 -2.375 62.375 C-8.26189824 62.85444031 -13.56594238 63.26365988 -18.9375 60.625 C-19.741875 59.8825 -20.54625 59.14 -21.375 58.375 C-22.1175 57.735625 -22.86 57.09625 -23.625 56.4375 C-27.44020708 51.94100594 -27.82371364 47.54268689 -27.6875 41.8046875 C-26.9902492 36.38356252 -23.33689494 32.90856472 -19.26123047 29.56323242 C-15.60209038 27.25815414 -11.43501908 26.57384684 -7.25 25.6875 C-5.47563102 25.29191557 -3.7021509 24.89231812 -1.9296875 24.48828125 C-1.15093262 24.32110596 -0.37217773 24.15393066 0.43017578 23.98168945 C2.68184679 23.35928651 4.57588699 22.48646736 6.625 21.375 C6.8752157 18.45865871 6.8752157 18.45865871 6.625 15.375 C2.54258746 12.65339164 -0.58536149 12.87123543 -5.375 13.375 C-10.40359934 14.58362826 -14.01580051 16.31596729 -17.375 20.375 C-21.58469919 18.87153601 -23.29360139 16.22944186 -25.375 12.375 C-25.18761181 9.5531543 -24.65586617 8.62216223 -22.51953125 6.7421875 C-21.74996094 6.24976563 -20.98039063 5.75734375 -20.1875 5.25 C-19.43082031 4.75242187 -18.67414062 4.25484375 -17.89453125 3.7421875 C-11.93653018 0.50916366 -6.64039915 0.01044088 0 0 Z " fill="#44EFF9" transform="translate(680.375,457.625)"/>
<path d="M0 0 C4.95 0 9.9 0 15 0 C15.0093457 1.28165039 15.01869141 2.56330078 15.02832031 3.88378906 C15.06820061 8.64016442 15.13395415 13.39589162 15.20751953 18.15185547 C15.23574049 20.21003898 15.25694941 22.2683311 15.27099609 24.32666016 C15.2924099 27.28604785 15.33905221 30.2441282 15.390625 33.203125 C15.39185364 34.12305237 15.39308228 35.04297974 15.39434814 35.99078369 C15.47309364 41.14740667 15.47309364 41.14740667 17.90161133 45.58129883 C21.49236376 48.00897334 24.83546058 47.5885485 29 47 C31.96493065 46.18792354 31.96493065 46.18792354 34 44 C36.55418935 38.2816075 37.45845375 33.56362415 37.51171875 27.34375 C37.52966995 26.55601196 37.54762115 25.76827393 37.56611633 24.95666504 C37.61976305 22.47116251 37.65396616 19.9858468 37.6875 17.5 C37.72071357 15.80205758 37.7552069 14.10413968 37.79101562 12.40625 C37.87546223 8.27096925 37.94248856 4.13573948 38 0 C42.95 0 47.9 0 53 0 C53 19.8 53 39.6 53 60 C48.05 60 43.1 60 38 60 C37.505 56.04 37.505 56.04 37 52 C36.62488281 52.48210938 36.24976563 52.96421875 35.86328125 53.4609375 C35.35152344 54.09257813 34.83976563 54.72421875 34.3125 55.375 C33.81363281 56.00148438 33.31476562 56.62796875 32.80078125 57.2734375 C27.94515408 61.92894121 21.80767469 61.48688549 15.45703125 61.3671875 C10.46075025 60.83650907 7.5136184 59.54585895 4 56 C-0.10699881 49.53191365 -0.54803545 43.32425009 -0.390625 35.83984375 C-0.38496521 34.80936417 -0.37930542 33.77888458 -0.37347412 32.71717834 C-0.35125474 29.45679371 -0.30108508 26.19754708 -0.25 22.9375 C-0.22991636 20.71420869 -0.21166887 18.49089998 -0.1953125 16.26757812 C-0.15143723 10.84462001 -0.08251013 5.4225023 0 0 Z " fill="#FDFDFD" transform="translate(766,587)"/>
<path d="M0 0 C1.18758911 0.00749268 1.18758911 0.00749268 2.39916992 0.01513672 C9.83602547 0.2361768 15.28336439 2.07731609 20.9296875 7.02734375 C22.375 8.5625 22.375 8.5625 24.1875 11.5 C24.0859375 13.48046875 24.0859375 13.48046875 23.1875 15.5 C21.12109375 17.203125 21.12109375 17.203125 18.625 18.75 C17.79871094 19.27078125 16.97242188 19.7915625 16.12109375 20.328125 C15.16396484 20.90820312 15.16396484 20.90820312 14.1875 21.5 C13.424375 20.71625 12.66125 19.9325 11.875 19.125 C7.92702974 15.268843 5.75354079 14.17783378 0.3125 14.0625 C-3.78744365 14.14667759 -5.42387593 14.25128059 -8.9375 16.5 C-13.29248634 23.46797815 -13.77044464 31.2836921 -12.3125 39.22265625 C-11.09138402 44.35046241 -11.09138402 44.35046241 -7.6875 48.125 C-1.1315305 48.98012646 4.54558448 49.52993966 10.1875 45.5 C12.08956849 42.44960779 12.08956849 42.44960779 13.1875 39.5 C16.19967112 40.14449607 18.70405836 41.15022182 21.4375 42.5625 C22.14390625 42.92472656 22.8503125 43.28695312 23.578125 43.66015625 C24.10921875 43.93730469 24.6403125 44.21445312 25.1875 44.5 C24.84787273 49.93403629 21.88131558 53.73792089 18.1875 57.5 C11.1370282 63.06545782 2.79812496 63.73837491 -5.86132812 62.82958984 C-12.91036352 61.63887441 -18.9376292 58.12819981 -23.375 52.5625 C-29.3171419 43.40461073 -31.22310435 33.62890642 -29.3515625 22.84375 C-27.23642776 14.78135407 -22.83616662 8.12534143 -15.8125 3.5 C-10.39631121 0.75788432 -6.04573047 -0.0499806 0 0 Z " fill="#44EEF9" transform="translate(752.8125,457.5)"/>
<path d="M0 0 C2.041875 0.0309375 2.041875 0.0309375 4.125 0.0625 C4.125 4.6825 4.125 9.3025 4.125 14.0625 C9.735 14.0625 15.345 14.0625 21.125 14.0625 C21.125 18.0225 21.125 21.9825 21.125 26.0625 C15.515 26.0625 9.905 26.0625 4.125 26.0625 C4.1990799 30.40511485 4.28196712 34.74569814 4.38745117 39.08740234 C4.42065355 40.56353138 4.44870017 42.03978594 4.47143555 43.51611328 C4.50506951 45.64149332 4.55738519 47.76572804 4.61328125 49.890625 C4.63946533 51.1684082 4.66564941 52.44619141 4.69262695 53.76269531 C5.1432664 57.20190634 5.62325649 58.69398544 8.125 61.0625 C11.10829207 61.32902617 11.10829207 61.32902617 14.3125 60.8125 C15.39917969 60.68359375 16.48585938 60.5546875 17.60546875 60.421875 C18.43691406 60.30328125 19.26835938 60.1846875 20.125 60.0625 C20.6595256 61.30670647 21.17708611 62.55820936 21.6875 63.8125 C22.12255859 64.85664063 22.12255859 64.85664063 22.56640625 65.921875 C23.21879015 68.42191958 23.10312864 69.68272311 22.125 72.0625 C15.79618794 76.18358692 8.44098388 75.82852655 1.125 75.0625 C-4.29738105 73.44673999 -7.18046895 69.93338305 -9.875 65.0625 C-11.14885127 61.2409462 -10.99853188 57.6556553 -10.97265625 53.67578125 C-10.9712413 52.85877243 -10.96982635 52.04176361 -10.96836853 51.19999695 C-10.96277294 48.59162732 -10.95022129 45.98334366 -10.9375 43.375 C-10.93248443 41.60612103 -10.92792162 39.83724072 -10.92382812 38.06835938 C-10.91280496 33.73303981 -10.89554338 29.39778448 -10.875 25.0625 C-13.845 25.0625 -16.815 25.0625 -19.875 25.0625 C-19.875 21.4325 -19.875 17.8025 -19.875 14.0625 C-16.905 14.0625 -13.935 14.0625 -10.875 14.0625 C-10.875 9.7725 -10.875 5.4825 -10.875 1.0625 C-6.91591662 0.40265277 -3.87795662 -0.05875692 0 0 Z " fill="#44F0FB" transform="translate(807.875,444.9375)"/>
<path d="M0 0 C5.28 0 10.56 0 16 0 C16.33 23.76 16.66 47.52 17 72 C20.465 72.495 20.465 72.495 24 73 C24.495 78.94 24.495 78.94 25 85 C19.61119172 86.79626943 13.12502944 87.21619819 7.76171875 85.12890625 C3.4464714 82.31059695 1.5925039 78.87508432 0 74 C-0.36076355 70.34889221 -0.36076355 70.34889221 -0.34057617 66.41235352 C-0.34101425 65.68956711 -0.34145233 64.9667807 -0.34190369 64.22209167 C-0.33983076 61.8574118 -0.31657197 59.49346068 -0.29296875 57.12890625 C-0.28736744 55.47981656 -0.28309987 53.83072185 -0.28010559 52.18162537 C-0.26869886 47.85952766 -0.23926807 43.53773657 -0.20599365 39.21575928 C-0.17520239 34.79817857 -0.16158097 30.38054791 -0.14648438 25.96289062 C-0.11439389 17.30843796 -0.06166053 8.65429255 0 0 Z " fill="#F5F5F5" transform="translate(619,562)"/>
<path d="M0 0 C0.66 0.33 1.32 0.66 2 1 C1.85795259 2.58367747 1.71119847 4.16693318 1.5625 5.75 C1.48128906 6.63171875 1.40007813 7.5134375 1.31640625 8.421875 C1.03761535 10.69350452 0.61209423 12.79851823 0 15 C-0.79664063 14.94199219 -1.59328125 14.88398437 -2.4140625 14.82421875 C-9.44124878 14.32640633 -9.44124878 14.32640633 -15.625 17.125 C-19.93632631 22.34397395 -20.31072651 27.67039685 -20.4140625 34.2421875 C-20.43342865 35.01055939 -20.4527948 35.77893127 -20.4727478 36.57058716 C-20.53214117 39.00528138 -20.57876628 41.44002393 -20.625 43.875 C-20.66321693 45.53387386 -20.70227079 47.19272867 -20.7421875 48.8515625 C-20.83937251 52.90093794 -20.91925758 56.95013034 -21 61 C-25.95 61 -30.9 61 -36 61 C-36 41.2 -36 21.4 -36 1 C-31.05 1 -26.1 1 -21 1 C-20.67 3.64 -20.34 6.28 -20 9 C-19.46375 8.071875 -18.9275 7.14375 -18.375 6.1875 C-13.49310567 -0.36451608 -7.67588774 -0.71788878 0 0 Z " fill="#FBFBFB" transform="translate(878,586)"/>
<path d="M0 0 C4.95 0 9.9 0 15 0 C15 19.8 15 39.6 15 60 C10.05 60 5.1 60 0 60 C0 40.2 0 20.4 0 0 Z " fill="#FCFCFC" transform="translate(895,587)"/>
<path d="M0 0 C4.95 0 9.9 0 15 0 C15 19.8 15 39.6 15 60 C10.05 60 5.1 60 0 60 C0 40.2 0 20.4 0 0 Z " fill="#FCFCFC" transform="translate(660,587)"/>
<path d="M0 0 C4.95 0 9.9 0 15 0 C15 19.8 15 39.6 15 60 C10.05 60 5.1 60 0 60 C0 40.2 0 20.4 0 0 Z " fill="#FDFDFD" transform="translate(582,587)"/>
<path d="M0 0 C3.031875 -0.061875 6.06375 -0.12375 9.1875 -0.1875 C10.60712036 -0.22846802 10.60712036 -0.22846802 12.05541992 -0.27026367 C16.84628681 -0.31755702 20.14384415 -0.19156787 24 3 C25.9651843 6.9303686 25.46909886 11.7147185 25 16 C22.81381363 19.16620095 21.63108389 19.7896387 18 21 C16.59175107 21.08021999 15.18002769 21.10765977 13.76953125 21.09765625 C13.04612549 21.09515869 12.32271973 21.09266113 11.57739258 21.09008789 C10.66497803 21.08098389 9.75256348 21.07187988 8.8125 21.0625 C5.904375 21.041875 2.99625 21.02125 0 21 C0 14.07 0 7.14 0 0 Z " fill="#373838" transform="translate(525,452)"/>
<path d="M0 0 C1.0621875 0.00322266 2.124375 0.00644531 3.21875 0.00976562 C4.27320313 -0.00634766 5.32765625 -0.02246094 6.4140625 -0.0390625 C7.93773437 -0.0400293 7.93773437 -0.0400293 9.4921875 -0.04101562 C10.42208496 -0.04399658 11.35198242 -0.04697754 12.31005859 -0.05004883 C15.3037883 0.38986617 16.67554209 1.23985011 18.84375 3.32226562 C19.34375 5.75976562 19.34375 5.75976562 18.84375 8.32226562 C16.5959646 11.11261992 15.26644984 12.18136568 11.84375 13.32226562 C9.0369041 13.49662163 6.27699549 13.59918819 3.46875 13.63476562 C2.71335937 13.66376953 1.95796875 13.69277344 1.1796875 13.72265625 C-2.73423333 13.76713262 -4.72595336 13.57843444 -8.16796875 11.52929688 C-10.15625 9.32226562 -10.15625 9.32226562 -10.59375 5.69726562 C-9.72029092 -1.0408473 -5.69383643 0.03984237 0 0 Z " fill="#3B3B3B" transform="translate(717.15625,647.677734375)"/>
<path d="M0 0 C4.63235294 2.26470588 4.63235294 2.26470588 6 5 C6.92794483 13.73180873 6.92794483 13.73180873 4.125 17.5625 C0.25494229 20.18048022 -2.29584176 20.40553088 -7 20 C-9.90717073 17.78136971 -10.83981643 16.48055071 -12 13 C-12.38887761 8.80012182 -12.45908323 6.70392762 -10.125 3.125 C-6.78093438 -0.21906562 -4.66879831 -0.36618026 0 0 Z " fill="#3D3D3D" transform="translate(724,596)"/>
<path d="M0 0 C0.58587716 10.97977197 0.58587716 10.97977197 -3 16 C-6.28697324 18.83874961 -8.31104234 19.90497136 -12.625 20.5 C-16 20 -16 20 -18.4375 18.5 C-20.3202259 15.48763856 -20.47680859 13.4842503 -20.53125 10 C-19.74647719 7.04556119 -18.38316692 5.88040579 -16 4 C-13.0546875 2.98828125 -13.0546875 2.98828125 -9.875 2.3125 C-6.66263977 1.60955076 -3.19624641 0 0 0 Z " fill="#373E3F" transform="translate(689,489)"/>
<path d="M0 0 C3.80103497 2.02182711 4.76161531 3.28484594 6.125 7.375 C5.99457739 11.15725583 5.37314467 13.12991987 2.73046875 15.8984375 C-0.6571732 18.05490483 -4.17249561 17.68680453 -8 17 C-10.5 16.0625 -10.5 16.0625 -12 14 C-12.95214155 10.93067413 -13.31421899 8.20391148 -13 5 C-9.68846199 -0.23436653 -5.81548546 -1.24533628 0 0 Z " fill="#F9F9F9" transform="translate(593,562)"/>
<path d="M0 0 C3.0625 2.0625 3.0625 2.0625 5 5 C5.78154305 9.3766411 5.51596953 11.21772362 3.0625 14.9375 C-1.03924848 17.69990204 -4.18941423 17.93339724 -9 17 C-11.5625 15.5625 -11.5625 15.5625 -13 13 C-13.74831272 8.70704811 -13.7145847 5.27382489 -11.5625 1.4375 C-7.71672421 -0.71988642 -4.29928892 -0.87209775 0 0 Z " fill="#FAFAFA" transform="translate(907,562)"/>
<path d="M0 0 C3.0625 2.0625 3.0625 2.0625 5 5 C5.78154305 9.3766411 5.51596953 11.21772362 3.0625 14.9375 C-1.03924848 17.69990204 -4.18941423 17.93339724 -9 17 C-11.5625 15.5625 -11.5625 15.5625 -13 13 C-13.74831272 8.70704811 -13.7145847 5.27382489 -11.5625 1.4375 C-7.71672421 -0.71988642 -4.29928892 -0.87209775 0 0 Z " fill="#FAFAFA" transform="translate(672,562)"/>
<path d="M0 0 C3 2.125 3 2.125 5 5 C5.33 7.31 5.66 9.62 6 12 C-2.25 12 -10.5 12 -19 12 C-17.96001413 5.76008479 -17.55897645 4.81681749 -13 1 C-8.61222897 -1.65623329 -4.84962606 -1.32262529 0 0 Z " fill="#373D3D" transform="translate(618,470)"/>
<path d="M0 0 C-1.40844718 3.21524305 -3.10344786 5.32183868 -5.625 7.75 C-6.57246094 8.67039062 -6.57246094 8.67039062 -7.5390625 9.609375 C-8.02117187 10.06828125 -8.50328125 10.5271875 -9 11 C-9 7.25983417 -8.0658409 6.54723807 -5.625 3.8125 C-4.99851563 3.09707031 -4.37203125 2.38164062 -3.7265625 1.64453125 C-2 0 -2 0 0 0 Z " fill="#08D4DE" transform="translate(249,404)"/>
</svg>
